<svg xmlns="http://www.w3.org/2000/svg" height="800" width="1200" viewBox="-70.31715 -45.9955 609.4153 275.973"><defs><clipPath id="a"><path d="M0 1471.86V0h3750.25v1471.86z"/></clipPath></defs><g clip-path="url(#a)" transform="matrix(.125 0 0 -.125 0 183.982)"><path d="M1778.82 1034.61c-88.71 0-114.24-55.758-114.24-170.016 0-127.676 26.17-181.426 114.24-181.426 88.71 0 116.23 54.434 116.23 181.426 0 114.258-26.87 170.016-116.23 170.016zm0-428.044c-167.99 0-205.63 114.903-205.63 258.028 0 129.023 38.28 247.306 205.63 247.306s207.66-118.283 207.66-247.306c0-143.125-40.31-258.028-207.66-258.028m418.25 417.984h-73.93V861.918h73.93c60.48 0 88.69 30.254 88.69 85.371 0 51.719-29.55 77.261-88.69 77.261zm0-239.273h-78.64c1.33-4.687 4.71-12.754 4.71-17.441V616.645h-90.06v484.495h163.99c123.67 0 180.09-65.86 180.09-153.851 0-87.422-55.09-162.012-180.09-162.012m218.26-168.632v484.495h322.58v-75.28h-232.52V909.613h212.34l-22.21-75.254h-192.83c2.01-4.687 2.7-10.058 2.7-12.812V691.918h233.14v-75.273h-323.2m537.95 408.785h-74.61V878.266h74.61c63.16 0 88 28.261 88 72.578 0 48.418-26.87 74.586-88 74.586zm99.43-409.235l-111.52 170.684c-3.4 4.726-4.73 10.742-6.1 16.191h-56.42V616.195h-90.02v484.515h164.63c122.97 0 179.37-60.49 179.37-149.866 0-65.84-32.24-114.239-100.78-135.742l129.04-198.907h-108.2M3404 958.871c-4.69 12.813-8.69 29.57-10.04 38.34-1.35-9.414-5.41-26.231-9.41-38.34l-49.73-144.473h118.28zm116.95-342.676l-41.68 122.95h-169.96l-42.34-122.95h-93.42l175.37 484.515h92.05l174.75-484.515h-94.77" fill="#ea212d"/><path d="M1705.05 133.75c-49.51 0-93.15 18.68-113.36 62.289l47.38 17.031c12.76-23.98 35.06-34.609 65.98-34.609 38.3 0 63.85 13.34 63.85 44.711 0 19.648-10.65 31.949-31.94 35.637l-69.72 12.211c-43.6 7.5-69.71 33.589-69.71 80.902 0 52.207 41.54 83.59 111.76 83.59 52.15 0 88.86-18.102 108.04-52.692l-43.1-21.898c-12.25 18.187-30.88 29.398-64.42 29.398-36.17 0-57.44-11.738-57.44-38.398 0-15.434 5.88-27.66 28.21-31.391l66.99-11.109c42.09-6.953 77.21-30.391 77.21-81.473 0-68.648-56.41-94.199-119.73-94.199m269.67 256.57c-53.28 0-75.08-26.16-75.08-105.41 0-79.281 21.8-105.941 75.08-105.941 53.17 0 74.44 26.66 74.44 105.941 0 79.25-21.27 105.41-74.44 105.41zm0-256.57c-96.37 0-130.94 57.48-130.94 151.16 0 93.672 34.57 150.602 130.94 150.602 96.25 0 131.41-56.93 131.41-150.602 0-93.68-35.16-151.16-131.41-151.16m311.99 375.414c-8.8 1.406-16.77 1.934-26.07 1.934-29.3 0-49.51-13.399-49.51-56.469v-27.09h72.58l-10.59-46.32h-61.99v-239.5h-55.84v219.832c0 5.84 2.63 12.219 5.35 19.668h-49.2v46.32h43.85v27.09c0 80.883 50.04 101.683 105.94 101.683 12.34 0 24.47-1.699 36.48-3.925l-11-43.223m148.34-375.414c-45.82 0-88.88 18.109-88.88 80.922v148.437c0 5.352 1.07 10.661 5.29 18.11h-52.11v46.32h46.82v96.84l55.88 16.484V427.539h97.03l-14.91-46.32h-82.12V214.672c0-25.063 16.97-34.633 36.73-34.633 16.49 0 30.3 5.883 46.78 17.031l32.52-32.48c-21.87-20.192-53.28-30.84-83.03-30.84m390.96 7.969h-50.57l-54.29 165.043c-3.73 10.609-6.88 19.648-7.95 35.078-1.08-15.43-4.79-24.469-8.52-35.078l-54.29-165.043h-50.53l-91.54 285.82h54.86l53.69-168.18c2.15-6.429 5.35-21.859 7.97-51.109 3.75 29.25 5.88 38.84 9.61 50.039l54.26 169.25h48.45l54.3-169.25c3.71-11.199 5.84-20.789 9.57-50.039 2.66 29.25 5.8 44.68 7.95 51.109l53.77 168.18h54.82l-91.56-285.82m280.02 129.301c-20.72 3.261-43.63 6.929-66.5 6.929-36.72 0-63.85-12.219-63.85-47.847 0-38.872 20.74-50.063 44.71-50.063 34.55 0 56.91 8.563 85.64 27.152zm10.14-129.301l-5.88 20.781c-28.73-19.18-56.41-28.75-89.9-28.75-70.26 0-101.16 39.91-101.16 96.352 0 73.929 54.85 91.507 109.14 91.507 25.51 0 54.24-3.711 77.66-9.07v36.742c0 27.168-14.34 41.039-52.68 41.039-31.95 0-58.53-7.5-77.14-34.629l-42.05 24.489c24.45 42.011 70.78 55.332 120.27 55.332 91.5 0 107.48-45.192 107.48-86.762V141.719h-45.74m203.22 245.902c-16.52 0-33.03-3.242-45.25-13.32l-18.62-15.43V141.719h-55.92v285.82h45.75l6.97-27.109 19.67 16.449c17.03 14.351 35.64 18.633 56.38 18.633 9.07 0 17.6-1.071 26.63-2.192v-48.941c-11.16 1.641-23.38 3.242-35.61 3.242m174.3 1.559c-51.02 0-74.48-18.078-78.21-76.641h146.33c-1.07 44.199-20.21 76.641-68.12 76.641zM3415 267.391c1.03-60.2 20.68-87.352 78.69-87.352 37.3 0 61.25 11.762 76.64 41.57l47.36-18.168c-23.46-47.851-60.12-69.691-124-69.691-93.09 0-134.59 47.371-134.59 151.16 0 93.672 31.91 150.602 134.59 150.602 110.19 0 127.16-87.832 127.16-150.602v-17.519H3415" fill="#918f90"/><path d="M682.773 1341.84c219.715 0 264.407-306.6 264.407-585 0-257.891-24.856-603.141-261.711-603.141-236.864 0-267.489 348.629-267.489 606.5 0 278.381 45.04 581.641 264.793 581.641zm391.767 14.32c-107.841 74.55-241.259 115.7-391.747 115.7-137.637 0-260.984-34.4-363.555-97.27C121.648 1254.75 0 1030.41 0 742.953 0 354.129 272.988 0 682.551 0c409.669 0 682.609 354.129 682.609 742.953 0 273.317-109.95 489.567-290.62 613.207m2579.71-266.39v-59.47h-13.18v59.47h-20.22v10.94h53.52v-10.94h-20.12m83.21-59.47l-3.13 41.79c-.1 1.47-.19 3.32.2 4.79l-13.77-31.25h-10.94l-13.77 31.15c.2-1.66.29-3.61.2-4.98l-3.13-41.5h-12.79l5.27 70.41h11.33l17.38-37.21c.59-1.27.88-2.44 1.08-3.32.19 1.17.39 2.34.87 3.42l17.39 37.11h11.33l5.27-70.41h-12.79" fill="#ea212d"/></g></svg>